<svg xmlns="http://www.w3.org/2000/svg" width="11.7951" height="14" viewBox="0 0 11.7951 14" fill="none">
<path d="M9.8276 13.4383C9.06547 14.1771 8.23336 14.0604 7.43235 13.7105C6.58467 13.3528 5.80699 13.3372 4.91266 13.7105C3.7928 14.1927 3.20177 14.0527 2.53296 13.4383C-1.26211 9.52658 -0.702184 3.56955 3.60616 3.3518C4.65603 3.40624 5.38705 3.92728 6.00141 3.97394C6.91908 3.7873 7.79785 3.2507 8.77773 3.32069C9.95203 3.41401 10.8386 3.88062 11.4218 4.72052C8.99548 6.17478 9.57096 9.37104 11.7951 10.2654C11.3519 11.4319 10.7764 12.5906 9.81982 13.4461L9.8276 13.4383ZM5.92365 3.30514C5.80699 1.57091 7.21459 0.139982 8.83217 0C9.0577 2.00641 7.0124 3.49956 5.92365 3.30514Z" fill="currentColor"/>
</svg>
